<?xml version="1.0" encoding="utf-8"?>
<!-- Generator: Adobe Illustrator 27.2.0, SVG Export Plug-In . SVG Version: 6.00 Build 0)  -->
<svg version="1.1" id="Layer_1" xmlns="http://www.w3.org/2000/svg" xmlns:xlink="http://www.w3.org/1999/xlink" x="0px" y="0px"
	 viewBox="0 0 500 500" style="enable-background:new 0 0 500 500;" xml:space="preserve">
<style type="text/css">
	.st0{fill:none;}
	.st1{fill:#F7941E;}
	.st2{fill:#FFFFFF;}
	.st3{fill:none;stroke:#000000;stroke-width:2.0546;stroke-miterlimit:10;}
	.st4{fill:none;stroke:#FFFFFF;stroke-width:1.5;stroke-miterlimit:10;}
	.st5{fill:#FFFFFF;stroke:#000000;stroke-width:1.5;stroke-miterlimit:10;}
	.st6{fill:none;stroke:#000000;stroke-width:1.5;stroke-miterlimit:10;}
</style>
<g id="Brzda">
	<rect class="st0" width="500" height="500"/>
	<g>
		<circle class="st1" cx="237.85" cy="237.15" r="94"/>
		<path class="st2" d="M389.88,193.66c-0.92-11.47-7.11-10.44-7.11-10.44c-2.87,0.34-3.98,2.96-4.6,6.21
			c-1.21,6.38-4.5,12.17-9.69,16.09c-0.09,0.07-0.18,0.14-0.27,0.21c-16.49,12.47-48.14,20.02-71.59,22.91
			c-4.94,0.4-10-0.1-14.59-1.98c-2.62-1.08-5.07-2.53-8.08-4.64c-47.11-31.23-92.42,4.83-96.18,7.94c-0.18,0.15-0.39,0.21-0.62,0.21
			h-35.09c-1.04,0-1.88,0.84-1.88,1.88v25.9c0,1.04,0.84,1.88,1.88,1.88h52.7c0.3,0,0.58,0.16,0.74,0.42l13.33,22.31
			c0.16,0.26,0.44,0.42,0.74,0.42h48.98c0.6,0,1.01-0.59,0.81-1.15l-8.47-23.56c-0.21-0.59,0.14-1.24,0.76-1.35
			c8.08-1.47,54.23-10.98,73-15.95C394.85,223.77,389.88,193.66,389.88,193.66z"/>
		<path d="M255.87,344.96h-43.56c-2.41,0-4.37-1.96-4.37-4.37v-47.63c0-2.41,1.96-4.37,4.37-4.37h43.56c2.41,0,4.37,1.96,4.37,4.37
			v47.63C260.23,343,258.28,344.96,255.87,344.96z"/>
		<path d="M114.78,259.84h20.55c0.48,0,0.86-0.39,0.86-0.86v-27.95c0-0.48-0.39-0.86-0.86-0.86h-20.55c-1.96,0-3.56,1.59-3.56,3.56
			v22.55C111.23,258.25,112.82,259.84,114.78,259.84z"/>
		<line class="st3" x1="164.65" y1="341.34" x2="207.94" y2="341.34"/>
		<circle class="st4" cx="234.09" cy="316.78" r="12.15"/>
		<path class="st5" d="M231.74,209.39c-3.06,0.07-6.04,0.32-8.93,0.73"/>
		<path class="st6" d="M378.63,216.25c12.98-12.12,11.25-22.6,11.25-22.6c-0.92-11.47-7.11-10.44-7.11-10.44
			c-2.87,0.34-3.98,2.96-4.6,6.21c-1.21,6.38-4.5,12.17-9.69,16.09c-0.09,0.07-0.18,0.14-0.27,0.21
			c-16.49,12.47-48.14,20.02-71.59,22.91c-4.94,0.4-10-0.1-14.59-1.98c-2.62-1.08-5.07-2.53-8.08-4.64
			c-10.39-6.89-20.69-10.5-30.47-11.92"/>
		<path class="st6" d="M217.38,211.42c-0.17,0.04-0.34,0.07-0.51,0.11c-21.6,4.68-37.09,17.04-39.21,18.8
			c-0.18,0.15-0.39,0.21-0.62,0.21h-35.09c-1.04,0-1.88,0.84-1.88,1.88v25.9c0,1.04,0.84,1.88,1.88,1.88h52.7
			c0.3,0,0.58,0.16,0.74,0.42l13.33,22.31c0.16,0.26,0.44,0.42,0.74,0.42h48.98c0.6,0,1.01-0.59,0.81-1.15l-8.47-23.56
			c-0.21-0.59,0.14-1.24,0.76-1.35c3.98-0.73,17.17-3.4,31.79-6.51l11.21-2.42c11.57-2.53,22.8-5.11,30.01-7.01
			c22.27-5.46,36.97-12.22,46.67-18.9"/>
		<line class="st6" x1="260.23" y1="292.14" x2="269.14" y2="292.14"/>
		<polyline class="st6" points="345.95,341.34 334.06,341.34 315.45,341.34 260.23,341.34 		"/>
		<polyline class="st6" points="276.18,292.14 310.65,292.14 345.95,292.14 		"/>
		<line class="st6" x1="190.83" y1="292.14" x2="207.94" y2="292.14"/>
		<line class="st6" x1="177.65" y1="292.14" x2="185.44" y2="292.14"/>
		<line class="st6" x1="127.87" y1="292.14" x2="171.38" y2="292.14"/>
		<line class="st6" x1="148.77" y1="341.34" x2="159.57" y2="341.34"/>
		<circle class="st6" cx="231.21" cy="230.17" r="6.4"/>
		<path class="st6" d="M182.93,236.58c0,0,20.13,20.69,59.05,20.8"/>
		<path class="st6" d="M263.47,276.96l-5.18,1.87l-4.75-13.16l5.18-1.87c0.46-0.17,0.97,0.07,1.14,0.54l4.14,11.48
			C264.17,276.28,263.93,276.79,263.47,276.96z"/>
		<line class="st6" x1="321.84" y1="300.74" x2="333.73" y2="300.74"/>
		<line class="st6" x1="269.65" y1="300.74" x2="318.86" y2="300.74"/>
		<circle class="st4" cx="234.09" cy="316.78" r="6.4"/>
		<path class="st6" d="M353.54,244.42c10.44-4.64,20.22-10.65,29.07-17.85l7.47-6.58"/>
		<path class="st6" d="M386.82,235.04c-3.45,2.64-7.05,5.12-10.77,7.41"/>
	</g>
</g>
</svg>
