<?xml version="1.0" encoding="utf-8"?>
<!-- Generator: Adobe Illustrator 27.2.0, SVG Export Plug-In . SVG Version: 6.00 Build 0)  -->
<svg version="1.1" id="Layer_1" xmlns="http://www.w3.org/2000/svg" xmlns:xlink="http://www.w3.org/1999/xlink" x="0px" y="0px"
	 viewBox="0 0 500 500" style="enable-background:new 0 0 500 500;" xml:space="preserve">
<style type="text/css">
	.st0{fill:#F7941E;}
	.st1{fill:#FFFFFF;}
	.st2{fill:none;stroke:#000000;stroke-width:1.5;stroke-miterlimit:10;}
	.st3{fill:none;stroke:#000000;stroke-width:1.5051;stroke-miterlimit:10;}
	.st4{fill:none;}
</style>
<g id="Ram">
	<g>
		<circle class="st0" cx="317.54" cy="225.06" r="94"/>
		<path class="st1" d="M364.42,264.46l-23.26-94.86c-0.3-1.24-1.42-2.11-2.7-2.11h-12.23c-1.8,0-3.13,1.68-2.7,3.41l3.2,13.04H297.4
			H150.24c-2.01,0-3.42,1.97-2.77,3.85l17.02,49.09c0.14,0.42,0.02,0.88-0.31,1.17l-58.4,51.88l-11.48-0.02
			c-6.94-0.01-12.57,5.57-12.57,12.46c0,7.02,5.84,12.66,12.91,12.46l10.83-0.31l59.71,13.98l14.03,3.28l19.55,4.58l30.11,2.05
			l12.22-8.63l64.45-45.53l17.15-12.12l21.87-15.45l2.24,9.15c0.32,1.29,1.48,2.2,2.82,2.2h11.97
			C363.48,268.03,364.86,266.28,364.42,264.46z M92.39,306.69c-1.83,0-3.31-1.47-3.31-3.29s1.48-3.29,3.31-3.29
			c1.83,0,3.31,1.47,3.31,3.29S94.22,306.69,92.39,306.69z M189.7,315.63l-67.66-15.84l9.13-9.03l38.09-34.62
			c0.68-0.62,1.79-0.34,2.09,0.53l19.87,57.3C191.55,314.92,190.69,315.87,189.7,315.63z M337.42,229.14L219.97,311
			c-0.58,0.41-1.4,0.14-1.63-0.52l-9.87-28.47l-10.42-30.06l-13.86-39.99c-0.24-0.69,0.28-1.41,1.01-1.41h19.52h10.05h1.47H332.8
			c0.5,0,0.93,0.34,1.04,0.82l4.01,16.66C337.95,228.45,337.78,228.89,337.42,229.14z"/>
		<path d="M164.7,179.69h-15.88c-0.46,0-0.86-0.29-1.02-0.72l-7.1-19.85c-0.25-0.7,0.26-1.43,1.01-1.44l15.99-0.15
			c0.46,0,0.88,0.29,1.03,0.72l6.99,20C165.97,178.96,165.45,179.69,164.7,179.69z"/>
		<circle cx="216.05" cy="335.09" r="14.87"/>
		<polyline class="st2" points="306.45,283.88 242.69,329.24 230.6,337.84 		"/>
		<path class="st2" d="M298.39,183.97h29.02l-3.16-12.99c-0.42-1.73,0.89-3.4,2.67-3.4h12.1c1.27,0,2.37,0.87,2.67,2.1l23.01,94.49
			c0.44,1.81-0.93,3.55-2.79,3.55h-11.85c-1.33,0-2.48-0.91-2.79-2.19l-2.22-9.11l-21.64,15.39"/>
		<path class="st3" d="M166.24,327.97l-59.48-13.93l-10.78,0.31c-7.04,0.2-12.86-5.41-12.86-12.41l0,0
			c0-6.86,5.61-12.42,12.52-12.41l11.44,0.02l58.17-51.68c0.33-0.29,0.45-0.75,0.31-1.17l-16.95-48.9
			c-0.65-1.88,0.75-3.84,2.76-3.84h132.79l-16.32,20.85"/>
		<line class="st2" x1="200.82" y1="335.8" x2="181.47" y2="331.24"/>
		<path class="st2" d="M210.43,281.65l9.77,28.36c0.23,0.67,1.03,0.93,1.61,0.52L337.99,229c0.36-0.25,0.52-0.69,0.42-1.11
			l-3.96-16.59c-0.11-0.48-0.54-0.81-1.03-0.81H218.11h-1.45"/>
		<path class="st2" d="M206.72,210.48h-19.31c-0.73,0-1.24,0.72-1,1.41l13.71,39.83"/>
		<path class="st3" d="M123.28,299.37l67.4,15.78c0.98,0.23,1.84-0.71,1.51-1.65l-19.79-57.08c-0.3-0.87-1.4-1.14-2.08-0.53
			l-37.94,34.48"/>
		<circle class="st2" cx="97.68" cy="302.17" r="3.27"/>
		<polyline class="st2" points="258.01,285.13 258.01,273.42 281.87,258.76 		"/>
		<line class="st2" x1="292.8" y1="183.97" x2="284.71" y2="195.39"/>
		<line class="st2" x1="112.57" y1="213.36" x2="166.86" y2="213.36"/>
		<line class="st2" x1="79.68" y1="222.97" x2="134.63" y2="222.97"/>
		<line class="st2" x1="140.85" y1="232.96" x2="159.32" y2="232.96"/>
		<line class="st2" x1="122.61" y1="232.96" x2="135.9" y2="232.96"/>
		<line class="st3" x1="133.05" y1="247.66" x2="164.18" y2="247.66"/>
	</g>
	<rect class="st4" width="500" height="500"/>
</g>
</svg>
