<?xml version="1.0" encoding="utf-8"?>
<!-- Generator: Adobe Illustrator 27.2.0, SVG Export Plug-In . SVG Version: 6.00 Build 0)  -->
<svg version="1.1" id="Layer_1" xmlns="http://www.w3.org/2000/svg" xmlns:xlink="http://www.w3.org/1999/xlink" x="0px" y="0px"
	 viewBox="0 0 500 500" style="enable-background:new 0 0 500 500;" xml:space="preserve">
<style type="text/css">
	.st0{fill:none;}
	.st1{fill:#F7941E;}
	.st2{fill:none;stroke:#000000;stroke-width:1.5;stroke-miterlimit:10;}
	.st3{fill:#FFFFFF;stroke:#000000;stroke-width:2.0547;stroke-miterlimit:10;}
	.st4{fill:none;stroke:#000000;stroke-width:2.0546;stroke-miterlimit:10;}
</style>
<g id="Koleso">
	<rect x="-1.1" class="st0" width="500" height="500"/>
	<g>
		<circle class="st1" cx="207.7" cy="276.3" r="94"/>
		<path class="st2" d="M160.37,313.31c-2.47-3.58-4.77-7.28-6.88-11.11"/>
		<path class="st2" d="M191.17,344.67c-9.28-6.67-17.63-14.54-24.82-23.39"/>
		<path class="st2" d="M147.85,266.57c-1.99-8.69-3.04-17.73-3.04-27.02"/>
		<path d="M265.73,351.29c-61.01,0-110.64-49.63-110.64-110.64s49.63-110.64,110.64-110.64s110.64,49.63,110.64,110.64
			S326.74,351.29,265.73,351.29z"/>
		<circle class="st3" cx="265.73" cy="240.65" r="94.25"/>
		<circle class="st4" cx="265.82" cy="240.21" r="8.51"/>
		
			<ellipse transform="matrix(0.1602 -0.9871 0.9871 0.1602 -13.6724 464.09)" class="st4" cx="265.9" cy="240.08" rx="16.14" ry="16.14"/>
		<g>
			<line class="st2" x1="273.49" y1="157.4" x2="277.25" y2="228.34"/>
			<line class="st2" x1="254.69" y1="228.34" x2="258.45" y2="157.4"/>
		</g>
		<g>
			<line class="st2" x1="273.49" y1="323.06" x2="277.25" y2="252.12"/>
			<line class="st2" x1="254.69" y1="252.12" x2="258.45" y2="323.06"/>
		</g>
		<g>
			<line class="st2" x1="348.8" y1="247.75" x2="277.86" y2="251.51"/>
			<line class="st2" x1="277.86" y1="228.95" x2="348.8" y2="232.71"/>
		</g>
		<g>
			<line class="st2" x1="183.14" y1="247.75" x2="254.08" y2="251.51"/>
			<line class="st2" x1="254.08" y1="228.95" x2="183.14" y2="232.71"/>
		</g>
		<g>
			<line class="st2" x1="241.7" y1="181.09" x2="269.79" y2="224.29"/>
			<line class="st2" x1="231.07" y1="164.73" x2="239.01" y2="176.94"/>
			<line class="st2" x1="250.26" y1="235.57" x2="218.04" y2="172.26"/>
		</g>
		<g>
			<line class="st2" x1="297.07" y1="275.13" x2="281.68" y2="244.89"/>
			<line class="st2" x1="303.41" y1="287.59" x2="298.87" y2="278.66"/>
			<line class="st2" x1="313.9" y1="308.2" x2="305.51" y2="291.72"/>
			<line class="st2" x1="262.15" y1="256.17" x2="300.87" y2="315.72"/>
		</g>
		<g>
			<line class="st2" x1="341.46" y1="205.33" x2="281.91" y2="244.05"/>
			<line class="st2" x1="270.63" y1="224.52" x2="333.94" y2="192.3"/>
		</g>
		<g>
			<line class="st2" x1="198" y1="288.16" x2="261.31" y2="255.94"/>
			<line class="st2" x1="198" y1="270.24" x2="190.47" y2="275.13"/>
			<line class="st2" x1="250.03" y1="236.41" x2="208.98" y2="263.1"/>
		</g>
		<g>
			<line class="st2" x1="198" y1="192.3" x2="261.31" y2="224.52"/>
			<line class="st2" x1="250.03" y1="244.05" x2="190.47" y2="205.33"/>
		</g>
		<g>
			<line class="st2" x1="341.46" y1="275.13" x2="281.91" y2="236.41"/>
			<line class="st2" x1="270.63" y1="255.94" x2="333.94" y2="288.16"/>
		</g>
		<g>
			<line class="st2" x1="313.9" y1="172.26" x2="281.68" y2="235.57"/>
			<line class="st2" x1="262.15" y1="224.29" x2="300.87" y2="164.73"/>
			<line class="st2" x1="262.15" y1="224.29" x2="300.87" y2="164.73"/>
		</g>
		<g>
			<line class="st2" x1="231.07" y1="315.72" x2="269.79" y2="256.17"/>
			<line class="st2" x1="250.26" y1="244.89" x2="218.04" y2="308.2"/>
		</g>
		<path class="st2" d="M353.68,155.98c-7.92-8.23-16.9-15.38-26.69-21.24l-8.73-4.78c-3.89-1.94-7.89-3.69-11.98-5.23"/>
		<path class="st2" d="M333.51,127.89c3.66,2.34,7.21,4.88,10.63,7.59"/>
	</g>
</g>
</svg>
