<?xml version="1.0" encoding="utf-8"?>
<!-- Generator: Adobe Illustrator 27.2.0, SVG Export Plug-In . SVG Version: 6.00 Build 0)  -->
<svg version="1.1" id="Layer_1" xmlns="http://www.w3.org/2000/svg" xmlns:xlink="http://www.w3.org/1999/xlink" x="0px" y="0px"
	 viewBox="0 0 500 500" style="enable-background:new 0 0 500 500;" xml:space="preserve">
<style type="text/css">
	.st0{fill:#F7941E;}
	.st1{fill:#FFFFFF;}
	.st2{fill:none;stroke:#000000;stroke-width:1.5;stroke-miterlimit:10;}
	.st3{fill:#FFFFFF;stroke:#000000;stroke-width:1.5;stroke-miterlimit:10;}
	.st4{fill:none;stroke:#000000;stroke-width:1.7122;stroke-miterlimit:10;}
	.st5{fill:#F7941E;stroke:#000000;stroke-width:1.5;stroke-miterlimit:10;}
	.st6{fill:none;stroke:#F7941E;stroke-width:1.5;stroke-miterlimit:10;}
</style>
<g id="Vidlica_00000063591594227484486890000007406099462027839368_">
	<g>
		<circle class="st0" cx="250" cy="341.71" r="94"/>
		<path class="st1" d="M179.05,195.38v170.53c0,1.11,0.9,2.01,2.01,2.01h3.68c4.4,0,7.97,3.57,7.97,7.97v12.32
			c0,1.13,0.91,2.04,2.04,2.04h9.57c1.13,0,2.04-0.91,2.04-2.04v-20.28V291.3v-15.61v-52.27v-6.69v-21.35L179.05,195.38
			L179.05,195.38z M188.72,360.28c-1.81,0-3.27-1.47-3.27-3.27s1.47-3.27,3.27-3.27c1.81,0,3.27,1.47,3.27,3.27
			S190.53,360.28,188.72,360.28z"/>
		<path class="st1" d="M290.99,195.65v172.54v20.28c0,1.13,0.91,2.04,2.04,2.04h9.57c1.13,0,2.04-0.91,2.04-2.04v-12.32
			c0-4.4,3.57-7.97,7.97-7.97h3.68c1.11,0,2.01-0.9,2.01-2.01V254.13v-14.37v-44.12L290.99,195.65L290.99,195.65z M309.79,360.28
			c-1.81,0-3.27-1.47-3.27-3.27s1.47-3.27,3.27-3.27c1.81,0,3.27,1.47,3.27,3.27S311.6,360.28,309.79,360.28z"/>
		<path class="st2" d="M206.35,275.68v-52.27 M206.35,216.73v-21.35h-27.3v170.53c0,1.11,0.9,2.01,2.01,2.01h3.68
			c4.4,0,7.97,3.57,7.97,7.97v12.32c0,1.13,0.91,2.04,2.04,2.04h9.57c1.13,0,2.04-0.91,2.04-2.04v-20.28V291.3"/>
		<path class="st2" d="M318.29,239.76v-44.12h-27.3v172.54v20.28c0,1.13,0.91,2.04,2.04,2.04h9.57c1.13,0,2.04-0.91,2.04-2.04
			v-12.32c0-4.4,3.57-7.97,7.97-7.97h3.68c1.11,0,2.01-0.9,2.01-2.01V254.13"/>
		<rect x="240.02" y="80.29" class="st3" width="17.72" height="28.39"/>
		<path d="M318.68,163.55h-7.36c-8.83-20.14-27.04-35.26-49.09-39.76v-6.04c0-2.77-2.24-5.01-5.01-5.01H239.8
			c-2.77,0-5.01,2.24-5.01,5.01v6.04c-22.05,4.5-40.26,19.62-49.09,39.76h-7.21c-2.77,0-5.01,2.24-5.01,5.01v17.42
			c0,2.77,2.24,5.01,5.01,5.01h17.42l0,0h11.41c0-22.71,18.48-41.19,41.19-41.19c22.72,0,41.2,18.48,41.2,41.19h11.55l0,0h17.42
			c2.77,0,5.01-2.24,5.01-5.01v-17.42C323.69,165.79,321.45,163.55,318.68,163.55z"/>
		<g>
			<line class="st4" x1="255.17" y1="163.3" x2="255.17" y2="170.42"/>
			<line class="st4" x1="255.17" y1="178.65" x2="255.17" y2="185.77"/>
			<line class="st4" x1="266.41" y1="174.53" x2="259.29" y2="174.53"/>
			<line class="st4" x1="251.05" y1="174.53" x2="243.93" y2="174.53"/>
		</g>
		<g>
			<line class="st4" x1="318.29" y1="109.3" x2="318.29" y2="119.86"/>
			<line class="st4" x1="318.29" y1="132.34" x2="318.29" y2="142.9"/>
			<line class="st4" x1="329.99" y1="114.05" x2="322.64" y2="121.62"/>
			<line class="st4" x1="313.94" y1="130.58" x2="306.59" y2="138.15"/>
			<line class="st4" x1="335.09" y1="125.98" x2="324.54" y2="126.06"/>
			<line class="st4" x1="312.05" y1="126.15" x2="301.49" y2="126.22"/>
			<line class="st4" x1="330.26" y1="137.9" x2="322.74" y2="130.48"/>
			<line class="st4" x1="313.84" y1="121.72" x2="306.33" y2="114.31"/>
		</g>
		<line class="st2" x1="185.18" y1="195.38" x2="185.18" y2="273.64"/>
		<line class="st2" x1="185.18" y1="282.69" x2="185.18" y2="312.75"/>
		<circle class="st5" cx="188.72" cy="357.01" r="3.27"/>
		<circle class="st5" cx="309.79" cy="357.01" r="3.27"/>
		<g>
			<line class="st6" x1="266.98" y1="192.35" x2="270.45" y2="195.83"/>
			<line class="st6" x1="274.48" y1="199.85" x2="277.95" y2="203.33"/>
			<line class="st6" x1="277.95" y1="192.35" x2="274.48" y2="195.83"/>
			<line class="st6" x1="270.45" y1="199.85" x2="266.98" y2="203.33"/>
		</g>
	</g>
</g>
</svg>
