<svg width="217" height="216" viewBox="0 0 217 216" fill="none" xmlns="http://www.w3.org/2000/svg">
<path d="M164.969 54.9418L165.836 55.4405L165.852 55.4113L164.969 54.9418ZM157.267 57.6784L157.768 56.8131L157.768 56.8131L157.267 57.6784ZM152.392 52.536L153.186 53.1447L153.201 53.1245L152.392 52.536ZM131.62 56.875L131.908 57.8326L131.62 56.875ZM112.37 67L112.718 67.9372L113.132 67.647L112.37 67ZM167.362 48.3118L164.086 54.4723L165.852 55.4113L169.128 49.2507L167.362 48.3118ZM164.102 54.4431C163.346 55.7568 162.344 56.6791 161.282 57.1153C160.247 57.5404 159.097 57.5325 157.906 56.8901L156.956 58.6503C158.677 59.5788 160.456 59.617 162.042 58.9652C163.601 58.3246 164.911 57.0472 165.836 55.4405L164.102 54.4431ZM157.906 56.8901C157.86 56.8654 157.814 56.8398 157.768 56.8131L156.765 58.5437C156.829 58.5804 156.892 58.6159 156.956 58.6503L157.906 56.8901ZM157.768 56.8131C157.501 56.6586 157.055 56.3654 156.619 56.0463C156.163 55.7118 155.813 55.4176 155.676 55.2585L154.164 56.5681C154.465 56.916 154.983 57.327 155.437 57.6596C155.912 58.0077 156.42 58.3436 156.766 58.5437L157.768 56.8131ZM154.526 65.5881C154.887 63.5982 155.438 62.2794 156.058 61.2433C156.698 60.1741 157.404 59.403 158.211 58.3956L156.651 57.1447C155.931 58.042 155.074 58.9919 154.342 60.2168C153.589 61.4747 152.959 63.0231 152.558 65.2304L154.526 65.5881ZM158.211 58.3952L158.23 58.3716L156.669 57.1215L156.65 57.1451L158.211 58.3952ZM151.599 51.9273C151.164 52.4947 150.659 52.7897 149.872 52.9728C149.014 53.1724 147.917 53.2197 146.3 53.3048C143.115 53.4723 138.437 53.7787 131.331 55.9174L131.908 57.8326C138.802 55.7573 143.306 55.465 146.405 55.302C147.929 55.2218 149.25 55.1708 150.325 54.9208C151.471 54.6542 152.416 54.1482 153.186 53.1447L151.599 51.9273ZM131.331 55.9174C127.391 57.1037 123.396 58.6239 119.932 60.3785C116.486 62.1237 113.484 64.1408 111.607 66.353L113.132 67.647C114.755 65.7343 117.48 63.8621 120.835 62.1627C124.172 60.4727 128.053 58.993 131.908 57.8326L131.331 55.9174ZM112.021 66.0628L111.349 66.3128L112.046 68.1872L112.718 67.9372L112.021 66.0628ZM153.201 53.1245L160.506 43.0885L158.889 41.9115L151.584 51.9475L153.201 53.1245Z" fill="#141518"/>
<circle cx="183.942" cy="135.906" r="30.1104" stroke="#F7941E" stroke-width="2"/>
<circle cx="184.095" cy="135.906" r="30.1104" stroke="#F7941E" stroke-width="2"/>
<path d="M97.6976 104.826C98.1609 104.806 98.6268 104.795 99.0951 104.795C116.277 104.795 130.205 118.724 130.205 135.906C130.205 153.087 116.277 167.016 99.0951 167.016C86.107 167.016 74.9778 159.057 70.3188 147.75C69.3433 145.383 68.6515 142.869 68.2856 140.25M84.8324 108.25C83.7488 108.81 82.7023 109.432 81.6976 110.111" stroke="#F7941E" stroke-width="2"/>
<path d="M175.667 89.1635L184.402 136.672" stroke="#F7941E" stroke-width="2"/>
<path d="M130.198 97L175.667 89.47" stroke="#F7941E" stroke-width="2"/>
<path d="M180.083 82.6709L182.908 82.1583C186.136 81.5725 189.222 83.7331 189.776 86.967C190.329 90.1906 188.153 93.2484 184.927 93.7836L182.217 94.233" stroke="#F7941E" stroke-width="2"/>
<path d="M135.668 151.231C140.323 151.231 144.097 147.457 144.097 142.802C144.097 138.147 140.323 134.373 135.668 134.373C134.142 134.373 132.712 134.778 131.477 135.487L131.606 136.519L139.882 142.879C140.138 143.364 140.342 144.335 139.116 144.335C138.043 144.335 131.616 142.536 127.372 141.3C127.285 141.787 127.239 142.289 127.239 142.802C127.239 147.457 131.013 151.231 135.668 151.231Z" fill="#141518"/>
<path d="M168.985 49.5261L169.504 48.4668C171.737 43.9097 169.827 38.3928 165.238 36.1446L164.634 35.8487C163.508 35.2972 162.307 34.917 161.07 34.7207L157.797 34.2014C157.646 34.1774 157.509 34.2927 157.509 34.4447L157.496 38.1099C157.484 41.6422 159.504 44.8808 162.694 46.4437L168.985 49.5261Z" fill="#F7941E"/>
<path d="M107.197 80.75L104.197 73.75C103.531 73.9167 101.997 75.45 101.197 80.25C100.397 85.05 104.197 89.5833 106.197 91.25L122.698 105.5L129.198 97.5L119.198 81.75H110.198L107.197 80.75Z" fill="#F7941E"/>
<path d="M119.198 81.75L133.62 104.125L136.62 111.25M129.37 114.25C127.786 112 125.37 107.75 125.12 107.5C124.87 107.25 105.609 91.6842 102.603 87.0887C100.286 81.9902 101.344 77.59 103.654 74.25" stroke="#F7941E" stroke-width="2"/>
<path d="M174.288 84.8723V86.8643C174.288 88.2186 175.385 89.3166 176.74 89.3166H177.506L177.528 89.4203C177.649 89.9856 178.149 90.3894 178.727 90.3894H180.264L180.108 82.8643C180.067 80.9003 178.49 79.3151 176.526 79.264L158.36 78.7922C157.23 78.7628 156.266 77.9637 156.027 76.858L154.26 68.6658C154.26 68.6658 152.942 62.1908 152.142 58.5128C151.343 54.8347 148.771 54.0684 148.771 54.0684M174.288 84.8723H154.666C152.873 84.8723 151.268 83.757 150.644 82.0759L146.472 70.8496M174.288 84.8723V83.4164M146.472 70.8496L144.02 64.7195M146.472 70.8496L138.198 73.6021" stroke="#141518" stroke-width="2"/>
<path d="M73.4627 160.278C67.1477 172.667 54.2709 181.151 39.4126 181.151C18.3179 181.151 1.21729 164.05 1.21729 142.955C1.21729 121.861 18.3179 104.76 39.4126 104.76C49.3367 104.76 58.3769 108.545 65.1683 114.75M75.0894 156.624C76.7164 152.38 77.6078 147.772 77.6078 142.955C77.6078 137.162 76.3179 131.669 74.0097 126.75" stroke="#141518" stroke-width="2"/>
<path fill-rule="evenodd" clip-rule="evenodd" d="M126.024 22.2565C122.64 20.3359 118.312 21.4757 116.358 24.8022L116.027 25.3665C116.027 25.3665 116.195 25.6119 116.551 26.0111L129.166 30.5769C130.271 27.4826 129.019 23.9561 126.024 22.2565Z" fill="#F7941E"/>
<path d="M134.665 29.6249C132.964 30.7949 130.581 31.0407 129.087 30.9732C126.659 30.8979 121.863 28.6689 116.662 26.1616" stroke="#F7941E" stroke-width="2"/>
<path d="M138.585 86.8524L150.282 150.463" stroke="#141518" stroke-width="2"/>
<path d="M16.6083 161.795C20.4548 168.457 27.036 172.556 34.1154 173.492" stroke="#141518" stroke-width="2"/>
<circle cx="81.0258" cy="146.774" r="10.3446" fill="#141518" stroke="#141518" stroke-width="2"/>
<path d="M136.74 81.1069V83.7741C136.74 85.2551 137.467 86.3942 138.722 86.7619C139.317 86.9364 139.949 86.9538 140.556 87.0841C140.903 87.1586 141.25 87.2614 141.535 87.473C142.222 87.9828 142.8 88.5801 143.45 88.5801C144.281 88.5801 144.532 87.9063 144.532 87.0751V78.4183C144.477 75.7886 142.366 73.6661 139.737 73.5978L115.414 72.9661C113.9 72.9267 112.609 71.8568 112.29 70.3762L110.468 61.0853C110.468 61.0853 108.922 53.0483 107.568 46.2803C106.215 39.5124 99.9543 39.5124 99.9543 39.5124M136.74 81.1069H110.468C108.066 81.1069 105.918 79.6135 105.082 77.3626L99.9543 64.0462L96.2134 54.1236M136.74 81.1069V79.1575" stroke="#141518" stroke-width="2"/>
<circle cx="147.979" cy="142.955" r="37.1953" fill="#141518" stroke="#141518" stroke-width="2"/>
<path d="M142.484 105.446L150.281 147.408" stroke="white" stroke-width="2"/>
<path d="M78.2583 97.3174L138.586 87.2628M90.1978 140.75L138.587 87.6732" stroke="#141518" stroke-width="2"/>
<path d="M102.161 148.032L101.868 148.988L101.868 148.988L102.161 148.032ZM90.8141 142.881L91.3024 142.008L91.289 142.001L91.2753 141.993L90.8141 142.881ZM85.8997 102.298L86.8713 102.534L85.8997 102.298ZM84.6975 139.701L83.7032 139.595L83.6304 140.274L84.2363 140.588L84.6975 139.701ZM97.7063 103.857L98.6835 104.069L97.7063 103.857ZM85.8997 132.841L86.8718 133.076L86.8955 132.978L86.8991 132.877L85.8997 132.841ZM97.0619 88.2763L97.7641 87.5643L97.0619 88.2763ZM95.8878 87.1695L95.2065 87.9014L95.8878 87.1695ZM103.162 145.382L103.833 144.641L103.162 145.382ZM103.465 145.664L102.71 146.32L103.465 145.664ZM102.454 147.076C100.167 146.375 97.3894 145.117 95.1543 144.015C94.0433 143.468 93.0783 142.965 92.3914 142.599C92.0481 142.416 91.7747 142.268 91.5876 142.165C91.4941 142.114 91.4221 142.075 91.3739 142.048C91.3498 142.034 91.3316 142.024 91.3196 142.018C91.3136 142.014 91.3092 142.012 91.3063 142.01C91.3049 142.009 91.3038 142.009 91.3032 142.008C91.3029 142.008 91.3026 142.008 91.3025 142.008C91.3024 142.008 91.3024 142.008 91.3024 142.008C91.3024 142.008 91.3024 142.008 90.8141 142.881C90.3257 143.753 90.3258 143.753 90.3259 143.753C90.326 143.753 90.3261 143.754 90.3262 143.754C90.3265 143.754 90.3269 143.754 90.3274 143.754C90.3283 143.755 90.3297 143.756 90.3315 143.757C90.335 143.759 90.3401 143.761 90.3467 143.765C90.36 143.772 90.3796 143.783 90.4051 143.797C90.456 143.826 90.5308 143.867 90.6273 143.92C90.8204 144.025 91.1005 144.177 91.4512 144.364C92.1521 144.738 93.1362 145.251 94.2701 145.809C96.5249 146.921 99.4207 148.238 101.868 148.988L102.454 147.076ZM94.003 137.787C94.32 138.254 94.9691 138.956 95.705 139.706C96.4638 140.48 97.3835 141.371 98.2981 142.24C100.128 143.977 101.96 145.642 102.49 146.123L103.833 144.641C103.307 144.164 101.488 142.511 99.6751 140.789C98.7679 139.928 97.8675 139.055 97.1326 138.306C96.3748 137.533 95.8567 136.956 95.6579 136.663L94.003 137.787ZM101.868 148.988C103.105 149.367 104.043 148.546 104.44 147.785C104.832 147.034 104.969 145.871 104.22 145.009L102.71 146.32C102.726 146.339 102.756 146.386 102.759 146.491C102.762 146.6 102.732 146.736 102.667 146.86C102.601 146.986 102.527 147.05 102.488 147.071C102.468 147.083 102.47 147.081 102.454 147.076L101.868 148.988ZM96.3597 88.9882C97.7899 90.3988 98.3191 91.4897 98.4999 92.3766C98.6864 93.2917 98.5359 94.1098 98.3489 95.1422L100.317 95.4986C100.493 94.526 100.735 93.3293 100.46 91.9772C100.178 90.597 99.3904 89.1683 97.7641 87.5643L96.3597 88.9882ZM83.7863 96.6658C84.9229 97.4408 85.2393 97.6901 85.3833 98.1435C85.4607 98.3874 85.5031 98.7627 85.4387 99.4079C85.3743 100.052 85.2108 100.901 84.9282 102.061L86.8713 102.534C87.1608 101.346 87.3504 100.391 87.4288 99.6067C87.507 98.823 87.4818 98.1441 87.2895 97.5384C86.8941 96.2927 85.8635 95.6614 84.913 95.0134L83.7863 96.6658ZM76.5846 89.7296C75.948 90.5008 75.948 90.5009 75.9481 90.5009C75.9481 90.5009 75.9482 90.501 75.9483 90.5011C75.9485 90.5012 75.9488 90.5015 75.9491 90.5018C75.9499 90.5024 75.9509 90.5032 75.9523 90.5044C75.9551 90.5067 75.9593 90.5101 75.9647 90.5146C75.9757 90.5237 75.9919 90.537 76.0131 90.5545C76.0555 90.5894 76.1178 90.6407 76.1977 90.7064C76.3577 90.8378 76.5884 91.0271 76.8716 91.2586C77.438 91.7214 78.2153 92.3536 79.0583 93.0307C80.7307 94.3739 82.7042 95.928 83.7863 96.6658L84.913 95.0134C83.9082 94.3283 81.9991 92.8274 80.3107 91.4713C79.4733 90.7988 78.7006 90.1703 78.1372 89.7099C77.8555 89.4797 77.6263 89.2916 77.4675 89.1612C77.3882 89.096 77.3265 89.0452 77.2847 89.0108C77.2637 88.9935 77.2478 88.9804 77.2371 88.9716C77.2318 88.9672 77.2278 88.9639 77.2251 88.9617C77.2238 88.9606 77.2228 88.9597 77.2221 88.9592C77.2218 88.9589 77.2215 88.9587 77.2214 88.9586C77.2213 88.9585 77.2213 88.9585 77.2212 88.9585C77.2212 88.9584 77.2212 88.9584 76.5846 89.7296ZM92.2475 132.429C92.2035 133.736 92.3207 134.661 92.654 135.509C92.9705 136.315 93.4715 137.003 94.003 137.787L95.6579 136.663C95.0618 135.785 94.7295 135.323 94.5155 134.778C94.3182 134.276 94.2075 133.65 94.2463 132.497L92.2475 132.429ZM98.3489 95.1422C97.9615 97.2809 97.4021 100.549 96.7291 103.644L98.6835 104.069C99.3661 100.93 99.9343 97.6109 100.317 95.4986L98.3489 95.1422ZM96.7291 103.644C95.846 107.706 94.7479 114.269 93.862 120.109C92.9809 125.916 92.2913 131.126 92.2475 132.429L94.2463 132.497C94.2853 131.34 94.9494 126.275 95.8394 120.409C96.7245 114.574 97.8147 108.064 98.6835 104.069L96.7291 103.644ZM84.9275 132.607C84.4986 134.386 84.1931 136.131 83.995 137.427C83.8958 138.076 83.8231 138.615 83.7751 138.994C83.7511 139.183 83.7333 139.331 83.7214 139.434C83.7154 139.485 83.711 139.524 83.7079 139.551C83.7064 139.565 83.7053 139.575 83.7045 139.583C83.7041 139.586 83.7038 139.589 83.7036 139.591C83.7035 139.592 83.7034 139.593 83.7033 139.593C83.7033 139.594 83.7033 139.594 83.7032 139.594C83.7032 139.594 83.7032 139.594 83.7032 139.594C83.7032 139.594 83.7032 139.595 84.6975 139.701C85.6918 139.808 85.6918 139.808 85.6918 139.808C85.6918 139.808 85.6918 139.808 85.6918 139.808C85.6918 139.808 85.6918 139.808 85.6918 139.808C85.6918 139.808 85.6919 139.807 85.6919 139.806C85.6921 139.805 85.6923 139.803 85.6926 139.8C85.6933 139.794 85.6942 139.785 85.6956 139.773C85.6983 139.749 85.7024 139.713 85.708 139.665C85.7191 139.569 85.7362 139.427 85.7592 139.245C85.8054 138.882 85.8757 138.359 85.972 137.729C86.165 136.467 86.4606 134.782 86.8718 133.076L84.9275 132.607ZM84.2363 140.588L90.3528 143.768L91.2753 141.993L85.1587 138.814L84.2363 140.588ZM84.9282 102.061C83.9295 106.161 84.0537 110.824 84.3481 115.911C84.6449 121.038 85.1193 126.641 84.9003 132.806L86.8991 132.877C87.1223 126.592 86.6379 120.859 86.3448 115.795C86.0493 110.69 85.9524 106.307 86.8713 102.534L84.9282 102.061ZM77.5396 71.6544C76.9276 72.4452 76.9276 72.4452 76.9275 72.4451C76.9275 72.4452 76.9275 72.4451 76.9275 72.4451C76.9275 72.4451 76.9276 72.4452 76.9277 72.4452C76.9278 72.4454 76.9281 72.4456 76.9286 72.4459C76.9295 72.4466 76.9309 72.4478 76.933 72.4494C76.9371 72.4525 76.9435 72.4575 76.9523 72.4644C76.97 72.4782 76.9972 72.4995 77.0347 72.5289C77.1096 72.5877 77.2253 72.6789 77.3864 72.807C77.7086 73.0632 78.2123 73.4668 78.9351 74.0536C80.3805 75.2273 82.7011 77.1334 86.1957 80.0586L87.4794 78.525C83.9788 75.5947 81.6504 73.6821 80.1957 72.501C79.4684 71.9104 78.9592 71.5025 78.6311 71.2416C78.467 71.1111 78.3481 71.0173 78.2698 70.9558C78.2306 70.9251 78.2015 70.9024 78.1821 70.8872C78.1723 70.8796 78.1649 70.8738 78.1599 70.8699C78.1574 70.868 78.1554 70.8665 78.1541 70.8654C78.1534 70.8649 78.1528 70.8644 78.1524 70.8641C78.1522 70.864 78.152 70.8638 78.1519 70.8637C78.1519 70.8637 78.1518 70.8636 78.1517 70.8636C78.1517 70.8635 78.1516 70.8635 77.5396 71.6544ZM86.1957 80.0586C91.3309 84.3571 94.1065 86.8776 95.2065 87.9014L96.5691 86.4375C95.4397 85.3862 92.6373 82.8424 87.4794 78.525L86.1957 80.0586ZM97.7641 87.5643C97.3673 87.1729 96.9532 86.795 96.5691 86.4375L95.2065 87.9014C95.6104 88.2774 95.99 88.6236 96.3597 88.9882L97.7641 87.5643ZM102.49 146.123C102.673 146.288 102.67 146.274 102.71 146.32L104.22 145.009C104.077 144.843 103.858 144.663 103.833 144.641L102.49 146.123Z" fill="#141518"/>
<path d="M114.17 44.8188C116.732 46.2012 119.314 45.8198 121.422 44.2859C123.764 42.5815 124.789 39.6756 125.836 36.975L125.869 36.8905C126.916 34.1899 128.478 31.623 128.882 28.7549C129.267 26.0229 128.441 23.4797 126.179 22.1695C123.204 20.446 119.022 21.1113 116.615 24.4533C116.269 24.9343 115.98 25.4503 115.662 25.9505C114.3 28.0918 110.261 34.2805 107.144 37.3974C103.337 41.2044 100.316 37.8106 92.137 41.6474C83.958 45.4842 67.7378 52.1122 60.713 54.8418M114.17 44.8188C114.097 44.7793 114.023 44.7383 113.95 44.696C113.13 44.221 112.385 43.5752 111.797 42.8964M114.17 44.8188C112.125 47.3691 110.281 49.9666 109.259 55.5863M114.17 44.8188C114.178 44.8083 114.187 44.7978 114.195 44.7872M60.713 54.8418C68.3057 63.0497 69.623 69.0309 71.1895 73.7752M60.713 54.8418C54.0445 57.433 44.2669 66.3074 49.7334 78.3368C55.1999 90.3661 58.5092 94.3121 58.5092 94.3121M71.1895 73.7752C71.1895 73.7752 74.7145 72.5062 85.5715 69.5452C96.4284 66.5842 99.9534 64.0463 99.9534 64.0463M71.1895 73.7752L75.0922 85.5M58.5092 94.3121C61.3733 98.7037 64.6018 103.273 66.6157 106.557C68.7194 109.988 68.4866 109.095 66.0194 113.278C63.0917 118.243 62.2646 129.572 60.4825 137.336C58.7004 145.101 56.5044 147.233 55.6452 149.811C54.8459 152.209 56.4978 153.45 57.9362 154.15C58.147 154.252 58.3618 154.34 58.5798 154.426C60.5653 155.209 71.0754 159.339 74.2279 160.361C77.7145 161.49 76.3779 157.496 74.7579 156.55C73.8074 155.9 66.4652 152.611 66.4652 147.074C66.4652 143.16 75.5796 122.689 80.7215 112.387C82.6283 108.567 82.5388 108.574 81.3338 104.356L76.7119 90.3661L75.0922 85.5M58.5092 94.3121C61.0017 92.0414 67.8077 87.1 75.0922 85.5" stroke="#141518" stroke-width="2"/>
<path d="M147.198 36.5C151.697 36.5 156.198 40.6667 156.698 43H145.698C144.531 41 142.779 36.5 147.198 36.5Z" fill="#141518"/>
</svg>
