<?xml version="1.0" encoding="UTF-8"?>
<svg width="178px" height="211px" viewBox="0 0 178 211" version="1.1" xmlns="http://www.w3.org/2000/svg" xmlns:xlink="http://www.w3.org/1999/xlink">
    <!-- Generator: Sketch 52.6 (67491) - http://www.bohemiancoding.com/sketch -->
    <title>Payment-2px</title>
    <desc>Created with Sketch.</desc>
    <g id="Page-1" stroke="none" stroke-width="1" fill="none" fill-rule="evenodd">
        <g id="Payment-2px" transform="translate(93.754283, 94.008702) rotate(-13.000000) translate(-93.754283, -94.008702) translate(6.254283, -12.991298)">
            <path d="M56.9171434,106.173136 L52.7791434,85.2171364 C52.0877434,81.7157364 54.3633434,78.3161364 57.8624434,77.6229364 L148.967043,59.5753364 C152.467043,58.8819364 155.866043,61.1589364 156.559043,64.6611364 L168.008043,122.525136 C168.701043,126.027136 166.425043,129.428136 162.925043,130.122136 L71.5123434,148.230136 C68.2329434,148.880136 65.0773434,146.652136 64.5893434,143.343136" id="Path" stroke="#F7941E" stroke-width="2" transform="translate(110.393841, 103.896992) rotate(-9.000000) translate(-110.393841, -103.896992) "></path>
            <path d="M141.114013,63.9994761 L124.928013,33.1003761 C123.290013,29.9736761 119.449013,28.7535761 116.317013,30.3649761 L34.114813,72.6576761 C30.967413,74.2769761 29.717713,78.1465761 31.319913,81.3113761 L47.226513,112.731176" id="Path" stroke="#141518" stroke-width="2" transform="translate(85.868020, 71.192710) rotate(-9.000000) translate(-85.868020, -71.192710) "></path>
            <path d="M69.6816613,9.99953233 L12.7872613,83.3216323 C10.5971613,86.1441323 11.1177613,90.2090323 13.9484613,92.3884323 L45.0494613,116.333632 L29.0215613,84.9591323 C27.4055613,81.7958323 28.6507613,77.9213323 31.8070613,76.2917323 L112.786661,34.4827323 L78.6576613,8.79963233 C75.8406613,6.67972233 71.8426613,7.21406233 69.6816613,9.99953233 Z" id="Path" fill="#141518" transform="translate(62.109571, 61.918246) rotate(-9.000000) translate(-62.109571, -61.918246) "></path>
            <path d="M80.5884027,94.2792321 L85.2694027,100.518232 C87.0164027,102.846232 90.2394027,103.479232 92.7374027,101.984232 C95.6634027,100.233232 96.4004027,96.3172321 94.3114027,93.6224321 L91.3144027,89.7561321" id="Path" stroke="#141518" stroke-width="2" transform="translate(88.046158, 96.273968) rotate(-9.000000) translate(-88.046158, -96.273968) "></path>
            <ellipse id="Oval" fill="#141518" transform="translate(40.423268, 204.979438) rotate(-9.000000) translate(-40.423268, -204.979438) " cx="40.4232679" cy="204.979438" rx="24.3242" ry="4.56923"></ellipse>
            <rect id="Rectangle" stroke="#141518" stroke-width="2" transform="translate(142.663992, 95.759821) rotate(-20.000000) translate(-142.663992, -95.759821) " x="133.397292" y="88.9617206" width="18.5334" height="13.5962" rx="4"></rect>
            <path d="M43.8223926,126.049707 C43.8223926,126.049707 52.3455926,121.092707 62.3634926,115.267707 C75.3289926,107.728707 90.7987926,98.7347068 93.5337926,97.1497068 C98.3837926,94.3399068 104.769793,94.0992068 107.679793,99.5577068 C109.654793,103.263707 108.084793,108.789707 103.234793,113.606707 C98.3847926,118.422707 93.5347926,121.232707 87.4717926,126.049707 C83.3467926,129.326707 80.3987926,132.161707 78.2265926,134.858707 C73.8989926,140.232707 72.6505926,145.056707 71.3051926,151.737707 C70.2812926,156.821707 70.5026926,162.627707 68.7623926,168.997707 M55.1390926,189.066707 L55.1390926,200.706707 M55.1390926,189.066707 C52.3104926,189.869707 50.6938926,190.350707 47.4605926,190.671707 M55.1390926,189.066707 C63.5136926,181.937707 67.0678926,175.199707 68.7623926,168.997707 M36.1441926,99.5577068 C36.1441926,99.5577068 28.0609926,104.147707 18.3611926,109.592707 C8.66149257,115.037707 11.0863926,117.218707 13.9154926,142.907707 C16.7445926,168.595707 8.25729257,200.706707 8.25729257,200.706707 M68.7623926,168.997707 C75.9420926,165.652707 86.2597926,159.363707 95.1507926,157.356707 C104.042793,155.350707 110.670793,152.620707 112.933793,149.730707" id="Shape" stroke="#141518" stroke-width="2" transform="translate(60.595543, 147.952813) rotate(-9.000000) translate(-60.595543, -147.952813) "></path>
            <ellipse id="Oval" fill="#F7941E" cx="35.6260803" cy="29.0383042" rx="24.9231" ry="24.5077"></ellipse>
            <polyline id="Path" stroke="#141518" stroke-width="2" stroke-linecap="round" transform="translate(35.786580, 29.539704) rotate(14.000000) translate(-35.786580, -29.539704) " points="23.1725803 30.8007042 32.0180803 39.3330042 48.4005803 19.7464042"></polyline>
        </g>
    </g>
</svg>