<svg width="109" height="108" viewBox="0 0 109 108" fill="none" xmlns="http://www.w3.org/2000/svg">
<path d="M28.2617 43.5L34.7617 40.5V58.5H28.2617V43.5Z" fill="#141518"/>
<path d="M35.2617 59V41H75.2617V67.75M45.2617 98.5H66.7617" stroke="#141518"/>
<path d="M66.2617 70L74.7617 67.5V99H66.2617V70Z" fill="#F7941E"/>
<path d="M74.7617 68H103.262V98.5H74.7617V68Z" stroke="#F7941E"/>
<path d="M26.7617 26.5L34.7617 40.5L28.5117 43.75L21.0117 30.5L26.7617 26.5Z" stroke="#141518"/>
<path d="M73.7617 28.5L66.7617 41H75.2617L83.2617 26.5L73.7617 28.5Z" stroke="#141518"/>
<path d="M50.158 55.6508C50.158 55.4194 50.1719 55.1911 50.1964 54.9662L53.62 58.3895C55.1305 59.8998 57.5875 59.8998 59.0976 58.3895C59.2952 58.1919 59.4666 57.9773 59.6125 57.7517L57.9117 56.0508C57.8426 56.3205 57.7047 56.5756 57.4939 56.7859C56.8682 57.412 55.8496 57.412 55.2237 56.7859L50.989 52.5518C52.0611 50.6982 54.0637 49.4501 56.3589 49.4501C59.7833 49.4501 62.5594 52.2265 62.5594 55.6508C62.5594 55.8823 62.5459 56.1104 62.521 56.3352L59.0979 52.9118C57.5875 51.4016 55.1305 51.4016 53.62 52.9118C53.4225 53.1098 53.2513 53.3242 53.1052 53.55L54.8062 55.2509C54.8751 54.9814 55.013 54.7257 55.2237 54.5154C55.8496 53.8893 56.8684 53.8893 57.4942 54.5154L61.7288 58.7499C60.6564 60.6032 58.6542 61.8515 56.3589 61.8515C52.9343 61.8515 50.158 59.0755 50.158 55.6508ZM57.8533 64.1274C58.4265 64.0259 59.0162 64.4565 59.4093 65.1753C59.6588 65.0956 59.9033 65.0055 60.1438 64.9072C59.9832 64.104 60.1584 63.3957 60.6622 63.1048C61.1652 62.8142 61.8656 63.016 62.4801 63.5555C62.6867 63.3954 62.8882 63.2294 63.0813 63.0541C62.6558 62.3547 62.5781 61.6287 62.9519 61.183C63.3257 60.7377 64.0531 60.6881 64.8155 60.9853C64.9547 60.765 65.0858 60.5395 65.208 60.3084C64.5683 59.7963 64.2472 59.1409 64.4461 58.5946C64.645 58.048 65.3127 57.7522 66.1317 57.7709C66.1865 57.5174 66.2306 57.2604 66.2657 57.0003C65.4908 56.738 64.9653 56.2322 64.9653 55.6509C64.9656 55.0698 65.4911 54.5639 66.2657 54.3014C66.2306 54.041 66.1862 53.784 66.1315 53.5305C65.3127 53.5493 64.645 53.254 64.4461 52.7073C64.2472 52.1608 64.5686 51.5054 65.208 50.9933C65.086 50.7622 64.9547 50.5365 64.8155 50.3164C64.0531 50.6136 63.3254 50.5641 62.9519 50.1189C62.5778 49.6732 62.6556 48.9472 63.0813 48.2475C62.8882 48.0721 62.6867 47.9061 62.4804 47.746C61.8656 48.2859 61.1649 48.488 60.6619 48.1975C60.1584 47.9064 59.9829 47.1976 60.1438 46.3943C59.9033 46.296 59.6588 46.206 59.4093 46.1262C59.0162 46.8456 58.4265 47.2763 57.8533 47.1751C57.2812 47.0742 56.8744 46.4692 56.7501 45.6607C56.6203 45.6556 56.4903 45.6507 56.3589 45.6507C56.2275 45.6507 56.0973 45.6556 55.9672 45.6607C55.8432 46.4691 55.4365 47.0738 54.8643 47.1747C54.2911 47.2758 53.7014 46.8453 53.3083 46.1262C53.0589 46.206 52.8142 46.296 52.5735 46.3943C52.7343 47.1975 52.5592 47.9061 52.0556 48.1972C51.5525 48.4875 50.8518 48.2856 50.237 47.746C50.0308 47.9061 49.829 48.0723 49.6361 48.2475C50.0616 48.9472 50.1394 49.6729 49.7657 50.1186C49.3921 50.5637 48.6646 50.6134 47.902 50.3162C47.7626 50.5365 47.6314 50.7622 47.5094 50.9935C48.1489 51.5054 48.4701 52.1607 48.2711 52.7072C48.0722 53.2539 47.4048 53.5493 46.586 53.5305C46.5313 53.7842 46.4869 54.0413 46.4518 54.3015C47.2266 54.564 47.7518 55.0698 47.7518 55.6511C47.7515 56.2322 47.2266 56.7378 46.4518 57.0003C46.4869 57.2607 46.5313 57.5177 46.586 57.7713C47.4048 57.7524 48.0722 58.048 48.2711 58.5946C48.4701 59.1415 48.1489 59.7963 47.5097 60.3084C47.6317 60.5399 47.7628 60.7653 47.902 60.9856C48.6646 60.6887 49.3919 60.738 49.7657 61.1835C50.1394 61.6287 50.0616 62.3544 49.6361 63.0541C49.8292 63.2294 50.0308 63.3954 50.2373 63.5555C50.8518 63.016 51.5523 62.8142 52.0556 63.1048C52.559 63.3957 52.7343 64.104 52.5735 64.9072C52.8142 65.0055 53.0589 65.0956 53.3083 65.1753C53.7014 64.4565 54.2914 64.0259 54.8643 64.1274C55.4365 64.2281 55.843 64.8326 55.9672 65.6406C56.0973 65.6461 56.2275 65.6507 56.3589 65.6507C56.4903 65.6507 56.6206 65.6461 56.7507 65.6406C56.875 64.8328 57.2815 64.2281 57.8533 64.1274Z" fill="black"/>
<path d="M22.9687 78.5001C22.9687 78.2803 22.9819 78.0634 23.0052 77.8497L26.2576 81.1019C27.6926 82.5367 30.0267 82.5367 31.4613 81.1019C31.649 80.9142 31.8118 80.7103 31.9505 80.4959L30.3347 78.8801C30.269 79.1363 30.138 79.3787 29.9378 79.5785C29.3433 80.1732 28.3757 80.1732 27.7811 79.5785L23.7582 75.556C24.7766 73.7951 26.6791 72.6094 28.8595 72.6094C32.1127 72.6094 34.75 75.247 34.75 78.5001C34.75 78.72 34.7372 78.9367 34.7135 79.1503L31.4616 75.898C30.0267 74.4634 27.6926 74.4634 26.2576 75.898C26.0699 76.0861 25.9073 76.2898 25.7685 76.5044L27.3844 78.1202C27.4499 77.8641 27.5809 77.6213 27.7811 77.4214C28.3757 76.8267 29.3436 76.8267 29.9381 77.4214L33.9609 81.4443C32.9421 83.2049 31.0401 84.3907 28.8595 84.3907C25.6062 84.3907 22.9687 81.7535 22.9687 78.5001ZM30.2792 86.5529C30.8237 86.4564 31.384 86.8655 31.7574 87.5484C31.9944 87.4727 32.2267 87.3871 32.4552 87.2936C32.3026 86.5306 32.469 85.8577 32.9476 85.5814C33.4255 85.3054 34.0909 85.497 34.6747 86.0095C34.8709 85.8574 35.0623 85.6998 35.2458 85.5332C34.8416 84.8688 34.7678 84.1791 35.1229 83.7557C35.478 83.3327 36.169 83.2856 36.8933 83.5678C37.0255 83.3586 37.1501 83.1444 37.2662 82.9248C36.6585 82.4383 36.3534 81.8157 36.5424 81.2967C36.7313 80.7775 37.3657 80.4965 38.1437 80.5142C38.1957 80.2734 38.2377 80.0292 38.271 79.7821C37.5348 79.5329 37.0356 79.0524 37.0356 78.5002C37.0358 77.9481 37.5351 77.4675 38.271 77.2181C38.2377 76.9708 38.1954 76.7266 38.1435 76.4858C37.3657 76.5037 36.7313 76.2232 36.5424 75.7038C36.3534 75.1846 36.6587 74.562 37.2662 74.0755C37.1503 73.8559 37.0255 73.6415 36.8933 73.4324C36.169 73.7148 35.4777 73.6677 35.1229 73.2448C34.7675 72.8213 34.8413 72.1317 35.2458 71.467C35.0623 71.3003 34.8709 71.1426 34.675 70.9906C34.0909 71.5034 33.4252 71.6955 32.9473 71.4194C32.469 71.1429 32.3024 70.4695 32.4552 69.7065C32.2267 69.613 31.9944 69.5275 31.7574 69.4518C31.384 70.1351 30.8237 70.5443 30.2792 70.4482C29.7357 70.3524 29.3493 69.7776 29.2312 69.0095C29.1079 69.0047 28.9844 69 28.8595 69C28.7347 69 28.611 69.0047 28.4874 69.0095C28.3696 69.7775 27.9833 70.352 27.4397 70.4478C26.8951 70.5438 26.3349 70.1349 25.9614 69.4518C25.7245 69.5275 25.492 69.613 25.2634 69.7065C25.4161 70.4694 25.2498 71.1426 24.7713 71.4191C24.2935 71.695 23.6278 71.5032 23.0437 70.9906C22.8478 71.1426 22.6561 71.3005 22.4729 71.467C22.8771 72.1317 22.951 72.8211 22.596 73.2445C22.2411 73.6673 21.5499 73.7146 20.8255 73.4322C20.693 73.6415 20.5684 73.8559 20.4525 74.0757C21.06 74.562 21.3651 75.1845 21.1761 75.7037C20.9872 76.2231 20.3531 76.5037 19.5753 76.4858C19.5233 76.7268 19.4811 76.971 19.4478 77.2182C20.1838 77.4676 20.6828 77.9481 20.6828 78.5004C20.6825 79.0524 20.1838 79.5328 19.4478 79.7821C19.4811 80.0295 19.5233 80.2737 19.5753 80.5146C20.3531 80.4967 20.9872 80.7775 21.1761 81.2967C21.3651 81.8162 21.06 82.4383 20.4528 82.9248C20.5687 83.1448 20.6932 83.3589 20.8255 83.5681C21.5499 83.2861 22.2409 83.3329 22.596 83.7562C22.951 84.1791 22.8771 84.8685 22.4729 85.5332C22.6563 85.6998 22.8478 85.8574 23.044 86.0095C23.6278 85.497 24.2933 85.3054 24.7713 85.5814C25.2496 85.8577 25.4161 86.5306 25.2634 87.2936C25.492 87.3871 25.7245 87.4727 25.9614 87.5484C26.3349 86.8655 26.8954 86.4564 27.4397 86.5529C27.9833 86.6486 28.3694 87.2228 28.4874 87.9904C28.611 87.9956 28.7347 88 28.8595 88C28.9844 88 29.1081 87.9956 29.2317 87.9904C29.3498 87.223 29.736 86.6486 30.2792 86.5529Z" fill="black"/>
<path d="M89.5604 90.7489C85.5904 90.7489 82.372 87.5306 82.372 83.5605C82.372 79.5905 85.5904 76.3722 89.5604 76.3722C93.5304 76.3722 96.7488 79.5905 96.7488 83.5605C96.7488 87.5306 93.5304 90.7489 89.5604 90.7489ZM89.5604 75.0606C84.866 75.0606 81.0604 78.8662 81.0604 83.5605C81.0604 88.255 84.866 92.0606 89.5604 92.0606C94.2549 92.0606 98.0604 88.255 98.0604 83.5605C98.0604 78.8662 94.2549 75.0606 89.5604 75.0606Z" fill="black"/>
<path d="M84.8533 86.2424L85.7535 87.4116L89.5604 84.4805L93.3673 87.4116L94.2675 86.2424L89.5604 82.578L84.8533 86.2424Z" fill="black"/>
<path d="M89.5604 81.947L92.9562 84.5615L93.8563 83.3924L89.5637 80.0614L85.2644 83.3924L86.1647 84.5615L89.5604 81.947Z" fill="black"/>
<path d="M89.5604 79.4283L92.5931 81.7633L93.4933 80.594L89.5604 77.5659L85.6275 80.594L86.5278 81.7633L89.5604 79.4283Z" fill="black"/>
<path d="M89.5604 85.1145L88.8226 85.6826V88.9871L89.5604 89.5552L90.2982 88.9871V85.6825L89.5604 85.1145Z" fill="black"/>
<path d="M58.2617 10V14.9355M58.2617 25.4516V30M68.2617 20H63.3262M52.8101 20H48.2617M65.3328 12.9289L62.1358 16.126M54.114 24.1478L51.1907 27.0711M65.3331 27.0713L62.136 23.8743M54.1142 15.8525L51.1909 12.9292" stroke="#F7941E"/>
<path d="M42.2617 26V28.3548M42.2617 33.8238V36M47.2617 31H44.9069M39.4379 31H37.2617M45.9099 27.3518L44.3574 28.9043M40.0397 33.222L38.6135 34.6482M45.91 34.6483L44.3576 33.0958M40.0398 28.7781L38.6137 27.3519" stroke="#141518"/>
<path d="M11.5 98.5H45.5V58.5C32.3898 58.5 24.9667 58.5 12 58.5" stroke="#141518"/>
<path d="M6 60L12 58V99H6V60Z" fill="#141518"/>
</svg>
