<svg width="216" height="216" viewBox="0 0 216 216" fill="none" xmlns="http://www.w3.org/2000/svg">
<path fill-rule="evenodd" clip-rule="evenodd" d="M144.735 10.8C123.461 10.8 105.743 28.0451 103.995 50.4528C103.057 62.4898 106.575 74.4422 113.809 83.7922L137.45 114.348C139.608 117.137 145.8 124.615 145.8 124.615C145.8 124.615 151.992 117.137 154.15 114.348L177.791 83.7922C185.025 74.4422 188.544 62.4898 187.605 50.4528C185.857 28.0451 168.139 10.8 146.865 10.8H144.735ZM146.215 68.1231C158.145 68.1231 167.815 58.4524 167.815 46.5231C167.815 34.5937 158.145 24.9231 146.215 24.9231C134.286 24.9231 124.615 34.5937 124.615 46.5231C124.615 58.4524 134.286 68.1231 146.215 68.1231Z" fill="#F7941E"/>
<circle cx="51.5076" cy="139.569" r="37.2154" stroke="#141518" stroke-width="2"/>
<circle cx="166.985" cy="139.569" r="37.2154" stroke="#141518" stroke-width="2"/>
<path d="M166.154 140.001L145.762 92.0891M143.471 86.7057L140.492 79.7073L149.581 78.0923L150.595 80.8672M143.471 86.7057L89.1691 112.008M143.471 86.7057L145.762 92.0891M89.1691 112.008L81.4153 117.554M89.1691 112.008L100.396 145.385L145.762 92.0891M89.1691 112.008L85.1649 99.219" stroke="#141518" stroke-width="2"/>
<path d="M50.677 139.569L82.2462 117.138" stroke="#F7941E" stroke-width="2"/>
<circle cx="100.108" cy="144.969" r="9.55385" fill="#141518"/>
<path d="M72.648 98.5237C72.259 96.308 73.695 94.1446 75.8553 93.6916L92.8056 90.1377C94.9659 89.6847 98.3523 90.0455 98.7412 92.2613C99.1302 94.477 96.01 94.9909 92.5628 96.3594C89.1156 97.728 82.8824 100.572 82.8824 100.572L77.2638 101.716C75.1035 102.168 73.0369 100.739 72.648 98.5237Z" stroke="#141518" stroke-width="2"/>
<path d="M97.2 136.246L100.251 145.385L106.338 138.31" stroke="white" stroke-width="2"/>
<path d="M29.4922 169.241C15.7204 171.806 7.47681 175.066 7.47681 178.615C7.47681 186.874 52.1106 193.569 107.169 193.569C162.228 193.569 206.861 186.874 206.861 178.615C206.861 175.4 200.096 172.422 188.585 169.983M79.7537 164.234C88.4639 163.861 97.661 163.662 107.169 163.662C118.357 163.662 129.114 163.938 139.154 164.448" stroke="#141518" stroke-width="2"/>
<path d="M7.47681 190.246V178.615C8.5887 183.185 30.0435 192.323 106.968 192.323C183.892 192.323 205.615 183.462 206.861 179.031V190.246C206.861 198.505 162.137 205.2 106.968 205.2C51.798 205.2 7.47681 198.505 7.47681 190.246Z" fill="#141518"/>
<path d="M66.4616 50.6769V58.9846M78.0923 62.3077L69.7847 62.3077M66.4616 65.6308V73.9385M63.1385 62.3077L54.8308 62.3077" stroke="#141518" stroke-width="2"/>
</svg>
