<svg width="217" height="216" viewBox="0 0 217 216" fill="none" xmlns="http://www.w3.org/2000/svg">
<path d="M96.6978 156.625C100.281 162.542 112.948 174.6 134.948 175.5" stroke="#F7941E" stroke-width="2"/>
<path d="M43.341 77.6923C25.7614 77.6923 11.5103 91.9434 11.5103 109.523C11.5103 127.103 25.7614 141.354 43.341 141.354H97.9102C97.9102 141.354 95.4179 140.523 92.9256 137.2C90.4395 133.885 89.6067 127.264 89.6026 127.231V109.692C89.6026 92.0192 75.2757 77.6923 57.6026 77.6923H43.341Z" fill="#141518"/>
<path d="M100.815 44.4752C103.318 29.589 114.994 18.3343 130.704 18.3343C148.367 18.3343 160.931 32.5607 161.091 50.18L100.815 44.4752Z" fill="#F7941E"/>
<path d="M130.751 124.534C123.642 124.534 117.068 122.258 111.727 118.398M164.698 147.75L162.683 89.5M111.727 118.398C110.126 117.24 108.635 115.941 107.274 114.518C101.756 108.747 98.3694 100.943 98.3694 92.3525L100.168 50.5161C100.168 32.7426 112.867 18.3343 130.751 18.3343C148.635 18.3343 161.334 32.7426 161.334 50.5161L161.593 58M111.727 118.398C111.212 130.75 110.862 139.122 110.436 149.351C104.338 152.173 72.2032 168.639 60.9771 176.123" stroke="#141518" stroke-width="2" stroke-linejoin="round"/>
<path d="M160.4 50.2865L100.662 45.0942C92.5104 45.0942 82.5095 37.8769 82.5095 28.0484" stroke="#F7941E" stroke-width="2"/>
<ellipse cx="160.948" cy="73.75" rx="11.25" ry="15.75" stroke="#141518" stroke-width="2" stroke-linejoin="round"/>
<path d="M99.8831 58.7289C95.328 60.7435 92.0259 66.7069 92.0259 73.75C92.0259 80.1175 94.7249 85.6025 98.6087 88.0849" stroke="#141518" stroke-width="2" stroke-linejoin="round"/>
<path d="M129.385 108.688C145.76 108.688 152.323 100.75 156.323 88" stroke="#141518" stroke-width="2"/>
<rect x="116.385" y="105.562" width="14.375" height="6.25" rx="3.125" fill="#141518"/>
<path d="M20.7603 110C23.0595 109.175 25.3011 108.139 27.4433 106.919M27.4433 106.919C30.7119 105.058 33.5094 103.699 36.1665 101.078C36.9148 100.34 37.3661 99.8878 37.979 99.0313C38.4536 98.368 38.6665 97.6198 38.4165 96.8594C38.2359 96.3102 37.4566 95.3608 35.9478 95.7031C34.5942 96.0102 33.8777 96.7391 32.7759 97.8906C31.0182 99.7276 30.1493 101.658 28.979 103.875C28.4508 104.876 27.9381 105.892 27.4433 106.919ZM27.4433 106.919C26.4346 109.013 25.5006 111.154 24.663 113.306C24.074 114.819 23.4292 116.328 22.9234 117.872C22.7608 118.368 22.6803 118.866 22.4968 119.361M22.4968 119.361C22.4921 119.374 22.4873 119.387 22.4825 119.399C22.3999 119.616 22.3497 119.838 22.2741 120.056C22.2053 120.253 22.3786 119.649 22.4582 119.455C22.471 119.424 22.4839 119.392 22.4968 119.361ZM22.4968 119.361C23.512 116.911 24.8342 114.496 26.8262 112.698C27.6603 111.945 28.4169 111.244 29.4009 110.703C29.9258 110.415 30.8594 110.222 31.4634 110.516C32.3853 110.877 32.6639 111.717 32.6821 112.375C32.71 113.38 31.9185 114.513 31.5415 115.422C31.2546 116.114 31.0042 116.593 30.8089 117.312C30.6715 117.818 30.6766 118.287 31.038 118.701C31.6589 119.413 32.9477 119.332 33.7759 119.156C35.3898 118.815 36.3882 118.636 37.9009 117.969C38.4169 117.741 39.3577 117.234 39.87 116.967M39.87 116.967C40.6666 116.551 41.4302 116.068 42.0728 115.458C43.0103 114.781 43.5214 113.986 44.0728 113.031C44.5601 112.187 45.3364 109.704 44.0728 109.105C43.3537 108.765 42.4991 109.245 42.0728 109.594C41.4396 110.112 40.5787 111.262 40.2603 112C39.6205 113.483 39.5898 115.145 39.8228 116.75C39.8335 116.824 39.8494 116.896 39.87 116.967ZM39.87 116.967C40.0819 117.695 40.7881 118.27 41.3853 118.75C42.4599 119.614 43.9825 119.521 45.1283 119.347C46.4156 119.152 47.5649 118.75 48.913 118.062L49.4009 117.773C51.5541 116.557 52.9567 115.204 54.5737 113.394M54.5737 113.394C56.802 110.9 58.5769 107.968 60.0519 104.944C61.3534 102.276 61.9478 98.4531 61.9478 97.0312C61.9478 95.6094 61.7446 94.8906 61.0103 94.875C60.2759 94.8594 59.6509 95.5625 59.1978 96.1528C58.7446 96.7431 58.0034 97.9853 57.4755 98.9722C55.9478 101.828 55.0707 105.408 54.8228 108.632C54.6999 110.229 54.5851 111.796 54.5737 113.394ZM54.5737 113.394C54.5731 113.48 54.5728 113.567 54.5728 113.653C54.5728 115.034 54.4019 116.534 54.6005 117.903C54.7313 118.803 55.634 119.649 56.354 119.688C57.293 119.738 57.7171 119.397 58.2603 119.125C58.8034 118.853 59.7177 117.717 60.2759 117.031C61.3616 115.697 62.0791 114.494 63.0516 113.064M63.0516 113.064C63.3786 112.583 63.7153 112.109 64.0728 111.653C65.9375 109.27 67.2915 107.547 68.4478 105.5C69.604 103.453 69.9321 102.453 70.4009 100.703C70.8696 98.9531 70.9467 97.1568 70.5415 96.625C70.1363 96.0932 69.7759 95.7274 68.7759 96.1528C67.7759 96.5781 66.9133 98.2391 66.3696 99.125C65.1197 101.162 64.7446 102.484 64.0728 104.688C63.4009 106.891 63.3292 107.592 63.1509 109.375C63.0458 110.426 62.8969 112.042 63.0516 113.064ZM63.0516 113.064C63.3101 114.77 64.229 117.049 64.6353 117.729C65.0415 118.41 65.1821 119.187 66.5728 119.375C67.9634 119.562 68.5814 118.601 69.479 117.469C70.3766 116.337 70.6517 115.662 71.3019 114.701C71.69 114.128 72.0141 113.547 72.4002 113.004M72.4002 113.004C72.638 112.255 73.1978 111.534 73.854 111.083C74.5103 110.633 75.811 110.235 77.045 110.375M72.4002 113.004C71.8755 114.655 71.7759 117.172 73.5415 118.844C75.3071 120.516 78.1665 118.828 79.3853 117.172C80.604 115.516 81.4354 113.632 80.604 111.938M80.604 111.938C80.3466 111.999 80.0103 111.969 79.3853 111.859C78.7603 111.75 78.2394 111.187 78.3298 110.501C78.331 110.492 78.3323 110.483 78.3339 110.474C78.338 110.451 78.3435 110.427 78.3505 110.403C78.4214 110.155 78.7014 110.005 78.9339 110M80.604 111.938C82.4887 111.938 83.6821 110.611 84.2446 109.266" stroke="white" stroke-width="2" stroke-linecap="round"/>
<path d="M143.508 183.167C141.59 182.913 137.475 181.474 136.323 187C135.367 191.582 139.26 192.812 143.073 194.312C146.885 195.813 151.881 197.062 159.823 198.907C169.506 200.5 179.135 201.438 185.448 198.907C191.76 196.375 199.51 196.687 199.51 196.687C203.26 191.687 206.885 174.5 202.535 166.949C188.363 160.587 184.512 153.5 185.012 145.937C185.512 138.375 185.947 135.21 186.51 132.187C187.073 129.165 187.796 125.143 185.012 124.562C180.06 123.53 176.603 127.171 174.573 131.125C172.543 135.079 171.955 138.596 171.167 142.373C170.38 146.15 169.792 148.967 169.792 148.967M143.508 183.167C141.411 182.177 135.01 181.063 135.635 175.562C136.26 170.062 139.971 170.771 144.259 171.233M143.508 183.167L149.979 184.688M144.259 171.233C147.429 171.891 149.983 172.533 151.323 172.813M144.259 171.233C141.978 170.759 135.872 169.415 137.023 163.645C138.174 157.875 143.124 159.132 145.947 159.293M145.947 159.293L153.111 160.764M145.947 159.293C143.884 158.45 137.573 158.063 138.698 151.25C139.823 144.438 150.195 146.984 153.885 147.313C157.576 147.641 158.5 147.876 162.698 148.25C166.895 148.624 169.792 148.967 169.792 148.967M169.792 148.967L173.968 149.37" stroke="#141518" stroke-width="2"/>
<path d="M185.861 137.891C184.27 137.132 181.136 135.781 182.078 131.573C182.844 128.149 185.206 127.139 186.823 127.169" stroke="#141518" stroke-width="2"/>
</svg>
