<svg width="216" height="216" viewBox="0 0 216 216" fill="none" xmlns="http://www.w3.org/2000/svg">
<path d="M107.787 181.938L106.563 180.903C80.2475 159.169 73.1077 151.51 73.1077 139.091C73.1077 128.741 81.2675 120.462 91.4673 120.462C99.8311 120.462 104.523 125.222 107.787 128.948C111.051 125.222 115.743 120.462 124.107 120.462C134.306 120.462 142.466 128.741 142.466 139.091C142.466 151.51 135.326 159.169 109.011 180.903L107.787 181.938Z" fill="#F7941E"/>
<path d="M122.123 85.9846L154.095 22.4308" stroke="#F7941E" stroke-width="2"/>
<path d="M54 21.6H83.9077L116.308 87.2308H90.2941C88.4151 87.2308 86.6958 86.1742 85.847 84.4978L54 21.6Z" fill="#141518"/>
<path d="M101.717 86.2308L133.129 22.6H160.816L131.352 83.0581C130.406 84.9992 128.436 86.2308 126.276 86.2308H101.717Z" stroke="#141518" stroke-width="2"/>
<circle cx="108" cy="146.215" r="52.1692" stroke="#141518" stroke-width="2"/>
<path d="M104.677 104.677C92.3241 104.677 81.3401 110.538 74.3542 119.631" stroke="#141518" stroke-width="2"/>
<path d="M129.6 98.0308V90.5538C129.6 88.2597 127.74 86.4 125.446 86.4H91.3846C89.0905 86.4 87.2307 88.2597 87.2307 90.5538V98.0308" stroke="#141518" stroke-width="2"/>
<path d="M61.0615 19.9385L95.1231 87.6462" stroke="white" stroke-width="2"/>
<path d="M30.8854 169.714C30.9643 166.749 31.2918 163.705 32.4283 162C33.611 163.774 33.9067 166.483 33.9711 169.714C33.9732 169.819 33.9749 169.925 33.9762 170.032C34.1164 170.703 34.6934 171.214 35.3965 171.255C35.4263 171.256 35.456 171.256 35.4858 171.257C38.4511 171.336 41.4953 171.663 43.2001 172.8C41.4261 173.983 38.7171 174.278 35.4858 174.343C35.4651 174.343 35.4445 174.344 35.4238 174.344C34.6007 174.377 33.9436 175.054 33.9436 175.886C33.8647 178.851 33.5648 181.895 32.4283 183.6C31.2456 181.826 30.9499 179.117 30.8854 175.886H30.8569C30.8569 175.061 30.2097 174.387 29.3954 174.345C29.3684 174.344 29.3414 174.344 29.3144 174.343C26.3491 174.264 23.3048 173.936 21.6001 172.8C23.3398 171.64 26.1657 171.329 29.3144 171.257C29.3409 171.257 29.3674 171.256 29.3937 171.255C30.2088 171.214 30.8568 170.54 30.8568 169.715L30.8854 169.714C30.8854 169.714 30.8854 169.714 30.8854 169.714Z" fill="#141518"/>
<path d="M19.9385 123.785V131.674M19.9385 142.994V150.369M33.2309 137.077H25.3412M14.0213 137.077H6.64624M29.3376 127.678L23.7588 133.257M15.7544 141.261L10.5395 146.476M29.338 146.476L23.7592 140.898M15.7548 132.893L10.5398 127.678" stroke="#F7941E" stroke-width="2"/>
<path d="M191.16 88.9758L184.412 95.7236M177.785 102.185L171.222 108.914M191.16 108.914L184.413 102.166M177.785 95.5385L171.222 88.9761" stroke="#141518" stroke-width="2"/>
</svg>
